# 3ds Max Wavefront OBJ Exporter v0.99 - (c)2007 guruware
# File Created: 20.11.2023 17:50:03

mtllib cs25_pyramid.mtl

#
# object Pyramid001
#

v  0.0000 12.0000 -0.0000
v  -5.0000 0.0000 5.0000
v  5.0000 0.0000 5.0000
v  5.0000 0.0000 -5.0000
v  -5.0000 0.0000 -5.0000
v  0.0000 0.0000 -0.0000
# 6 vertices

vn 0.0000 0.3846 0.9231
vn 0.9231 0.3846 -0.0000
vn 0.0000 0.3846 -0.9231
vn -0.9231 0.3846 -0.0000
vn 0.0000 -1.0000 -0.0000
# 5 vertex normals

vt 0.5000 1.0000 0.0000
vt 0.0000 0.0000 0.0000
vt 1.0000 0.0000 0.0000
vt 0.0000 1.0000 0.0000
vt 0.5000 0.5000 0.0000
vt 1.0000 1.0000 0.0000
# 6 texture coords

o Pyramid001
g Pyramid001
usemtl wire_028149177
s 4
f 1/1/1 2/2/1 3/3/1 
s 2
f 1/1/2 3/2/2 4/3/2 
s 16
f 1/1/3 4/2/3 5/3/3 
s 32
f 1/1/4 5/2/4 2/3/4 
s 8
f 2/4/5 6/5/5 3/6/5 
f 3/6/5 6/5/5 4/3/5 
f 4/3/5 6/5/5 5/2/5 
f 5/2/5 6/5/5 2/4/5 
# 8 faces

